HIERARCHY
ROOT root
{
	OFFSET	0	13.1	24.9
	CHANNELS 6  Xposition Yposition Zposition Xrotation Yrotation Zrotation
	JOINT spine_1
	{
		OFFSET	0	9.99999	0
		CHANNELS 3  Xrotation Yrotation Zrotation
		JOINT spine_2
		{
			OFFSET	0	112	-10
			CHANNELS 3  Xrotation Yrotation Zrotation
			JOINT spine_3
			{
				OFFSET	0	206.5	19.3
				CHANNELS 3  Xrotation Yrotation Zrotation
				JOINT spine_4
				{
					OFFSET	0	110.4	14.6
					CHANNELS 3  Xrotation Yrotation Zrotation
					JOINT neck_1
					{
						OFFSET	0	71.8	-50.3
						CHANNELS 3  Xrotation Yrotation Zrotation
						JOINT neck_2
						{
							OFFSET	0	86.2	-25.8
							CHANNELS 3  Xrotation Yrotation Zrotation
							JOINT head_ee
							{
								OFFSET	0	179.8	-8.7
								CHANNELS 3  Xrotation Yrotation Zrotation
								End Site
								{
									OFFSET	1	0	0
								}
							}
						}
					}
					JOINT left_clavicle
					{
						OFFSET	-43.2	22.4	-70.8
						CHANNELS 3  Xrotation Yrotation Zrotation
						JOINT left_shoulder
						{
							OFFSET	-93.9	-5.79999	48.7
							CHANNELS 3  Xrotation Yrotation Zrotation
							JOINT left_elbow
							{
								OFFSET	-291.4	-30.8	15.2
								CHANNELS 3  Xrotation Yrotation Zrotation
								JOINT left_lowarm_twist
								{
									OFFSET	-110.7	-3.89999	13.6
									CHANNELS 3  Xrotation Yrotation Zrotation
									JOINT left_hand
									{
										OFFSET	-110.7	-3.89999	13.6
										CHANNELS 3  Xrotation Yrotation Zrotation
										JOINT left_ee
										{
											OFFSET	-80.8	-5.10001	12.1
											CHANNELS 3  Xrotation Yrotation Zrotation
											End Site
											{
												OFFSET	1	0	0
											}
										}
									}
								}
							}
						}
					}
					JOINT right_clavicle
					{
						OFFSET	43.2	22.4	-70.8
						CHANNELS 3  Xrotation Yrotation Zrotation
						JOINT right_shoulder
						{
							OFFSET	93.9	-5.79999	48.7
							CHANNELS 3  Xrotation Yrotation Zrotation
							JOINT right_elbow
							{
								OFFSET	291.4	-30.8	15.2
								CHANNELS 3  Xrotation Yrotation Zrotation
								JOINT right_lowarm_twist
								{
									OFFSET	110.7	-3.89999	13.6
									CHANNELS 3  Xrotation Yrotation Zrotation
									JOINT right_hand
									{
										OFFSET	110.7	-3.89999	13.6
										CHANNELS 3  Xrotation Yrotation Zrotation
										JOINT right_ee
										{
											OFFSET	80.8	-5.10001	12.1
											CHANNELS 3  Xrotation Yrotation Zrotation
											End Site
											{
												OFFSET	1	0	0
											}
										}
									}
								}
							}
						}
					}
				}
			}
		}
	}
	JOINT left_hip
	{
		OFFSET	-82.8	-127.5	0.300001
		CHANNELS 3  Xrotation Yrotation Zrotation
		JOINT left_knee
		{
			OFFSET	-28.2	-396.7	2.2
			CHANNELS 3  Xrotation Yrotation Zrotation
			JOINT left_ankle
			{
				OFFSET	-11.7	-411.3	35.4
				CHANNELS 3  Xrotation Yrotation Zrotation
				JOINT left_toes
				{
					OFFSET	0	-60	-88.6
					CHANNELS 3  Xrotation Yrotation Zrotation
					JOINT left_foot_ee
					{
						OFFSET	-22.5	-16.5	-42.2
						CHANNELS 3  Xrotation Yrotation Zrotation
						End Site
						{
							OFFSET	1	0	0
						}
					}
				}
			}
		}
	}
	JOINT right_hip
	{
		OFFSET	82.8	-127.5	0.300001
		CHANNELS 3  Xrotation Yrotation Zrotation
		JOINT right_knee
		{
			OFFSET	28.2	-396.7	2.2
			CHANNELS 3  Xrotation Yrotation Zrotation
			JOINT right_ankle
			{
				OFFSET	11.7	-411.3	35.4
				CHANNELS 3  Xrotation Yrotation Zrotation
				JOINT right_toes
				{
					OFFSET	0	-60	-88.6
					CHANNELS 3  Xrotation Yrotation Zrotation
					JOINT right_foot_ee
					{
						OFFSET	22.5	-16.5	-42.2
						CHANNELS 3  Xrotation Yrotation Zrotation
						End Site
						{
							OFFSET	1	0	0
						}
					}
				}
			}
		}
	}
}
MOTION
Frames: 5
Frame Time: 0.02
2485.2 761.964 -811.489 117.33 -80.0937 115.913 -1.37216 0.159997 0.964308 -1.37164 0.0983143 0.972534 -1.3695 -0.13148 0.968608 -1.37081 0.0231357 0.977216 -12.2839 8.899 -4.75348 -12.4461 19.914 -1.97332 -0.0 0.0 -0.0 4.55605 10.8145 9.07507 -7.11398 -21.9959 59.4288 1.93128 -43.7276 0.775015 12.4917 0.26995 -1.56973 -2.38328 29.357 -1.32479 -0.0 0.0 -0.0 8.10194 15.6127 -15.4863 -26.2621 17.228 -59.0187 0.980971 25.9167 -0.225729 -8.16709 0.35831 -0.979813 1.78198 14.0754 -6.00265 0.0 0.0 0.0 -4.04379 1.82675 6.90838 -9.72429 0.276615 1.46495 15.8595 29.8425 -2.38384 26.756 -0.0 -0.0 -0.0 0.0 -0.0 6.95805 25.4157 -1.24739 -64.3198 2.68406 -8.98354 16.9783 -24.6276 2.45966 2.3317 -0.0 -0.0 0.0 0.0 0.0 
2498.7 763.408 -811.05 124.667 -79.5938 123.929 -1.38682 0.162736 0.535464 -1.38667 0.128334 0.544734 -1.38528 -0.00255126 0.55964 -1.3857 0.0858641 0.55302 -12.8222 9.06376 -3.58418 -13.0285 19.4807 -0.70228 -0.0 0.0 -0.0 4.58956 10.6488 9.13127 -5.39822 -22.3925 58.4397 2.11191 -46.2872 0.902791 12.6755 0.27135 -1.59316 -2.51272 28.4449 -2.48808 -0.0 0.0 -0.0 7.64946 15.119 -14.5302 -27.3307 17.1716 -59.2712 0.825948 22.2518 -0.162435 -8.58195 0.38021 -1.02814 1.72454 14.1469 -5.58305 0.0 0.0 0.0 -7.43553 1.29845 7.29206 -8.81129 0.261274 1.32569 17.0084 28.8653 -2.52848 27.1249 -0.0 -0.0 -0.0 0.0 -0.0 10.3305 25.0712 -2.06198 -64.2206 2.67255 -8.97343 17.0012 -24.5681 2.46197 1.9219 -0.0 -0.0 0.0 0.0 0.0 
2519.34 767.226 -808.096 126.233 -77.9337 125.381 -1.58573 0.179788 0.344986 -1.58568 0.157471 0.355727 -1.58461 0.0686279 0.382921 -1.5848 0.128242 0.367278 -13.2015 9.17556 -2.75305 -13.4325 19.1748 0.194066 -0.0 0.0 -0.0 4.74744 10.5047 9.40395 -4.1784 -22.769 57.7742 2.2494 -48.0876 1.00366 12.8012 0.272264 -1.60919 -2.5917 27.6595 -3.32729 -0.0 0.0 -0.0 7.35636 15.0138 -13.9014 -28.0075 17.155 -59.4431 0.715205 19.5088 -0.122953 -8.8722 0.395741 -1.06186 1.67721 14.09 -5.28914 0.0 0.0 0.0 -9.83498 0.705028 6.38647 -7.82472 0.242204 1.1755 17.638 28.2105 -2.60436 27.3283 -0.0 -0.0 -0.0 0.0 -0.0 12.9278 24.8454 -2.56026 -63.4303 2.58156 -8.89219 17.0037 -24.5273 2.46178 1.63287 -0.0 -0.0 0.0 0.0 0.0 
2529.21 764.535 -802.494 135.475 -77.0766 135.641 -1.48907 0.172871 0.0414537 -1.48908 0.169883 0.0523699 -1.48893 0.152771 0.0909055 -1.48891 0.16521 0.0656373 -13.4706 9.2653 -2.14757 -13.7164 18.974 0.846133 -0.0 0.0 -0.0 4.9027 10.2422 9.67284 -2.90085 -23.161 57.0892 2.3696 -49.5646 1.09414 12.8829 0.272839 -1.6196 -2.64535 27.0383 -3.94928 -0.0 0.0 -0.0 7.29806 14.9682 -13.7779 -28.08 17.2851 -59.7906 0.641578 17.6313 -0.0995021 -9.08118 0.407029 -1.08609 1.64191 14.0053 -5.08871 0.0 0.0 0.0 -11.6293 0.307737 5.45 -7.05037 0.225425 1.05786 18.0791 27.7344 -2.65668 27.4731 -0.0 -0.0 -0.0 0.0 -0.0 14.8727 24.6947 -2.49205 -62.3113 2.45467 -8.77505 17.1263 -24.4864 2.47781 1.45951 -0.0 -0.0 0.0 0.0 0.0 
2545.24 762.605 -800.632 136.201 -75.6406 136.904 -1.46973 0.138002 -0.0987374 -1.46974 0.144005 -0.0897558 -1.46998 0.161075 -0.0533697 -1.46995 0.150625 -0.0781388 -13.6623 9.3317 -1.68763 -13.9171 18.8213 1.33751 -0.0 0.0 -0.0 4.87872 10.0071 9.62966 -1.58255 -23.4692 55.9666 2.47332 -50.7712 1.1738 12.9121 0.273041 -1.62333 -2.68425 26.5555 -4.42073 -0.0 0.0 -0.0 7.22701 14.9393 -13.6261 -28.1724 17.3141 -59.9995 0.579168 16.0085 -0.0814413 -9.21723 0.414426 -1.10185 1.6157 13.9023 -4.95771 0.0 0.0 0.0 -12.8499 -0.0151526 4.79114 -6.47584 0.21195 0.970724 18.3529 27.3625 -2.68764 27.5595 -0.0 -0.0 -0.0 0.0 -0.0 17.2673 24.4909 -3.06527 -60.9232 2.3005 -8.62637 17.2491 -24.4421 2.49381 1.33617 -0.0 -0.0 0.0 0.0 0.0 
